<svg width="23" height="24" viewBox="0 0 23 24" fill="none" xmlns="http://www.w3.org/2000/svg">
<path fill-rule="evenodd" clip-rule="evenodd" d="M16.0351 15.2005C16.0351 17.3035 14.079 19.4077 11.1679 19.4077C8.25682 19.4077 6.30072 17.3035 6.30072 15.2005C6.30072 13.0192 7.62223 10.3028 9.1755 7.93796C9.87754 6.86911 10.5821 5.93806 11.1331 5.25028C11.6946 5.99181 12.4231 7.00122 13.149 8.14041C13.9059 9.32817 14.6421 10.6293 15.1845 11.8956C15.7369 13.1851 16.0351 14.3173 16.0351 15.2005ZM4.9101 15.2005C4.9101 11.1422 8.4779 6.24849 10.2256 4.09474C10.7925 3.39612 11.1679 2.98579 11.1679 2.98579C11.1679 2.98579 11.5275 3.41259 12.0744 4.12752C13.8086 6.39482 17.4257 11.56 17.4257 15.2005C17.4257 18.3486 14.624 20.9005 11.1679 20.9005C7.71181 20.9005 4.9101 18.3486 4.9101 15.2005ZM8.03784 12.6896H9.53386C9.25238 13.3793 9.08197 14.0333 9.08197 14.5897C9.08197 15.4441 9.86046 16.4219 11.1679 16.4219V17.9148C9.24785 17.9148 7.69134 16.4261 7.69134 14.5897C7.69134 13.977 7.82415 13.3315 8.03784 12.6896Z" fill="#C1C1C1"/>
</svg>
