<svg width="22" height="22" viewBox="0 0 22 22" fill="none" xmlns="http://www.w3.org/2000/svg">
<path d="M10.8868 8.25C10.3857 8.25 9.97956 8.6604 9.97956 9.16667V13.9953C9.43722 14.3123 9.07233 14.9047 9.07233 15.5833C9.07233 16.5959 9.88466 17.4167 10.8868 17.4167C11.8889 17.4167 12.7013 16.5959 12.7013 15.5833C12.7013 14.9047 12.3364 14.3123 11.794 13.9953V9.16667C11.794 8.6604 11.3879 8.25 10.8868 8.25Z" fill="#C1C1C1"/>
<path d="M9.97955 5.5C9.97955 4.99375 10.3857 4.58334 10.8868 4.58334C11.3879 4.58334 11.794 4.99375 11.794 5.5C11.794 6.00626 11.3879 6.41667 10.8868 6.41667C10.3857 6.41667 9.97955 6.00626 9.97955 5.5Z" fill="#C1C1C1"/>
<path d="M14.5157 6.41667C14.0146 6.41667 13.6085 6.82708 13.6085 7.33333C13.6085 7.8396 14.0146 8.25 14.5157 8.25C15.0168 8.25 15.4229 7.8396 15.4229 7.33333C15.4229 6.82708 15.0168 6.41667 14.5157 6.41667Z" fill="#C1C1C1"/>
<path d="M5.44337 11.9167C4.94232 11.9167 4.53613 11.5063 4.53613 11C4.53613 10.4937 4.94232 10.0833 5.44337 10.0833C5.94441 10.0833 6.3506 10.4937 6.3506 11C6.3506 11.5063 5.94441 11.9167 5.44337 11.9167Z" fill="#C1C1C1"/>
<path d="M6.35065 7.33333C6.35065 7.8396 6.75683 8.25 7.25788 8.25C7.75893 8.25 8.16511 7.83959 8.16511 7.33333C8.16511 6.82708 7.75893 6.41667 7.25788 6.41667C6.75683 6.41667 6.35065 6.82708 6.35065 7.33333Z" fill="#C1C1C1"/>
<path d="M16.3302 11.9167C15.8291 11.9167 15.423 11.5063 15.423 11C15.423 10.4937 15.8291 10.0833 16.3302 10.0833C16.8313 10.0833 17.2374 10.4937 17.2374 11C17.2374 11.5063 16.8313 11.9167 16.3302 11.9167Z" fill="#C1C1C1"/>
<path fill-rule="evenodd" clip-rule="evenodd" d="M10.8868 21.0833C16.3983 21.0833 20.8664 16.5688 20.8664 11C20.8664 5.43113 16.3983 0.916668 10.8868 0.916668C5.37523 0.916668 0.907227 5.43113 0.907227 11C0.907227 16.5688 5.37523 21.0833 10.8868 21.0833ZM10.8868 19.2438C6.38075 19.2438 2.72789 15.5529 2.72789 11C2.72789 6.44711 6.38075 2.75626 10.8868 2.75626C15.3928 2.75626 19.0457 6.44711 19.0457 11C19.0457 15.5529 15.3928 19.2438 10.8868 19.2438Z" fill="#C1C1C1"/>
</svg>
