<svg width="23" height="22" viewBox="0 0 23 22" fill="none" xmlns="http://www.w3.org/2000/svg">
<path fill-rule="evenodd" clip-rule="evenodd" d="M16.6875 16.4706C19.0342 16.2044 20.8594 14.1645 20.8594 11.6875C20.8594 9.02963 18.7579 6.87501 16.1655 6.87501C16.0655 6.87501 15.9662 6.87821 15.8677 6.88453C14.9952 3.70546 12.1464 1.375 8.76669 1.375C4.693 1.375 1.39062 4.76085 1.39062 8.9375C1.39062 12.4726 3.75634 15.4411 6.95312 16.2697V14.8343C4.55611 14.045 2.78125 11.7327 2.78125 8.9375C2.78125 5.47282 5.50812 2.75 8.76669 2.75C11.531 2.75 13.9126 4.7094 14.5716 7.41891L14.5737 7.41807C14.6667 7.79401 14.726 8.18377 14.7481 8.58377C15.1814 8.36906 15.6634 8.25001 16.1655 8.25001C17.9427 8.25001 19.4687 9.7416 19.4687 11.6875C19.4687 13.4397 18.2314 14.8235 16.6875 15.0817V16.4706ZM9.38815 19.2515C9.55652 19.2515 9.73591 19.107 9.73584 18.876C9.7358 18.7495 9.69188 18.5118 9.55604 18.1615C9.50188 18.0219 9.43859 17.8781 9.3689 17.7332C9.16093 18.18 9.04013 18.5815 9.04022 18.876C9.04029 19.107 9.21978 19.2515 9.38815 19.2515ZM8.547 16.3331C8.97152 15.627 9.38687 15.125 9.38687 15.125C9.38687 15.125 9.78294 15.6444 10.1971 16.3472C10.6508 17.1172 11.1262 18.1073 11.1265 18.876C11.1268 19.8428 10.3487 20.6265 9.38857 20.6265C8.42846 20.6265 7.6499 19.8428 7.6496 18.876C7.64934 18.0324 8.10318 17.0713 8.547 16.3331ZM13.9077 16.8135C13.9078 17.0445 13.7284 17.189 13.56 17.189C13.3916 17.189 13.2122 17.0445 13.2121 16.8135C13.212 16.519 13.3328 16.1175 13.5408 15.6707C13.6105 15.8156 13.6738 15.9594 13.7279 16.099C13.8638 16.4493 13.9077 16.687 13.9077 16.8135ZM13.5587 13.0625C13.5587 13.0625 13.1434 13.5645 12.7189 14.2706C12.2751 15.0088 11.8212 15.9699 11.8215 16.8135C11.8218 17.7803 12.6003 18.564 13.5604 18.564C14.5206 18.564 15.2986 17.7803 15.2983 16.8135C15.2981 16.0448 14.8227 15.0547 14.369 14.2847C13.9548 13.5819 13.5587 13.0625 13.5587 13.0625Z" fill="#C1C1C1"/>
</svg>
