<svg width="22" height="22" viewBox="0 0 22 22" fill="none" xmlns="http://www.w3.org/2000/svg">
<path fill-rule="evenodd" clip-rule="evenodd" d="M10.3127 3.3639V1.34556H11.6736V3.3639H10.3127ZM14.1463 4.01906L15.1669 2.27113L16.3454 2.94391L15.3248 4.69184L14.1463 4.01906ZM10.9932 15.4739C13.6237 15.4739 15.7561 13.3654 15.7561 10.7645C15.7561 8.16352 13.6237 6.05502 10.9932 6.05502C8.36265 6.05502 6.2302 8.16352 6.2302 10.7645C6.2302 13.3654 8.36265 15.4739 10.9932 15.4739ZM10.9932 16.8195C14.3753 16.8195 17.117 14.1086 17.117 10.7645C17.117 7.42038 14.3753 4.70946 10.9932 4.70946C7.61108 4.70946 4.86935 7.42038 4.86935 10.7645C4.86935 14.1086 7.61108 16.8195 10.9932 16.8195ZM18.4778 10.0917H20.5191V11.4373H18.4778V10.0917ZM18.9027 5.47238L17.1349 6.48155L17.8153 7.64683L19.5831 6.63766L18.9027 5.47238ZM5.64093 2.94391L6.66157 4.69184L7.8401 4.01906L6.81946 2.27113L5.64093 2.94391ZM4.17106 7.64683L2.40326 6.63766L3.08369 5.47238L4.85148 6.48155L4.17106 7.64683ZM10.3127 18.1651V20.1834H11.6736V18.1651H10.3127ZM3.5085 10.0917H1.46722V11.4373H3.5085V10.0917ZM2.40323 14.8913L4.17102 13.8821L4.85145 15.0474L3.08365 16.0566L2.40323 14.8913ZM6.66161 16.8372L5.64097 18.5852L6.8195 19.258L7.84014 17.51L6.66161 16.8372ZM15.1669 19.258L14.1462 17.51L15.3248 16.8372L16.3454 18.5852L15.1669 19.258ZM17.1349 15.0474L18.9027 16.0566L19.5831 14.8913L17.8153 13.8821L17.1349 15.0474Z" fill="#C1C1C1"/>
</svg>
