<svg width="22" height="22" viewBox="0 0 22 22" fill="none" xmlns="http://www.w3.org/2000/svg">
<path fill-rule="evenodd" clip-rule="evenodd" d="M8.70048 13.6304L8.6998 12.8152L8.69746 9.9682L8.69283 4.28158C8.69173 2.92552 9.71684 1.82538 10.9825 1.82435C12.2481 1.8233 13.2751 2.92177 13.2762 4.27782L13.2808 9.96444L13.2831 12.8117L13.2838 13.6267C14.1226 14.2979 14.6602 15.3301 14.6612 16.488C14.6628 18.513 13.0225 20.156 10.9975 20.1577C8.97246 20.1593 7.32947 18.519 7.32782 16.494C7.32686 15.3361 7.86279 14.3031 8.70048 13.6304ZM10.5226 9.80943C11.0706 9.9511 11.6964 10.1129 12.3643 10.1012L12.3635 9.14554L11.4468 9.14627C11.1937 9.1465 10.9883 8.94144 10.9881 8.6883C10.9879 8.43517 11.1929 8.22983 11.446 8.2296L12.3627 8.22887L12.362 7.3122L11.4453 7.31294C11.1922 7.31317 10.9868 7.10811 10.9866 6.85497C10.9864 6.60188 11.1914 6.3965 11.4446 6.39627L12.3612 6.39554L12.3605 5.47887L11.4438 5.4796C11.1907 5.47983 10.9853 5.27477 10.9851 5.02164C10.9849 4.76855 11.1899 4.56315 11.4431 4.56295L12.3597 4.56219L12.3595 4.27857C12.3588 3.46494 11.7427 2.80587 10.9833 2.80648C10.2239 2.80711 9.60881 3.46719 9.6095 4.28082L9.61385 9.61647C9.88234 9.64393 10.188 9.72294 10.5226 9.80943Z" fill="#C1C1C1"/>
</svg>
