<svg width="22" height="22" viewBox="0 0 22 22" fill="none" xmlns="http://www.w3.org/2000/svg">
<path d="M8.94168 20.625H6.21998C5.85921 20.6245 5.51335 20.4795 5.25825 20.2217C5.00315 19.964 4.85962 19.6145 4.85913 19.25V13.75H6.21998V19.25H8.94168V13.75H10.3025V19.25C10.302 19.6145 10.1585 19.964 9.90341 20.2217C9.6483 20.4795 9.30245 20.6245 8.94168 20.625Z" fill="#BDBDBD"/>
<path d="M17.1067 13.75H15.916L14.385 19.9588L12.8827 13.75H11.6633L13.3644 20.625H15.4057L17.1067 13.75Z" fill="#BDBDBD"/>
<path d="M10.3025 1.375H11.6633V4.8125H10.3025V1.375Z" fill="#BDBDBD"/>
<path d="M14.8522 6.11833L17.2376 3.70807L18.1998 4.68024L15.8143 7.09051L14.8522 6.11833Z" fill="#BDBDBD"/>
<path d="M17.1068 10.3125H20.5089V11.6875H17.1068V10.3125Z" fill="#BDBDBD"/>
<path d="M1.45697 10.3125H4.85909V11.6875H1.45697V10.3125Z" fill="#BDBDBD"/>
<path d="M3.76605 4.68024L4.72822 3.70806L7.11368 6.11832L6.15151 7.0905L3.76605 4.68024Z" fill="#BDBDBD"/>
<path d="M15.0655 11.6875H13.7046V11C13.7046 10.2707 13.4179 9.57118 12.9075 9.05546C12.3971 8.53973 11.7048 8.25 10.9829 8.25C10.2611 8.25 9.56882 8.53973 9.05841 9.05546C8.54799 9.57118 8.26124 10.2707 8.26124 11V11.6875H6.90039V11C6.90039 9.90598 7.33052 8.85677 8.09614 8.08318C8.86177 7.3096 9.90018 6.875 10.9829 6.875C12.0657 6.875 13.1041 7.3096 13.8697 8.08318C14.6354 8.85677 15.0655 9.90598 15.0655 11V11.6875Z" fill="#BDBDBD"/>
</svg>
