<svg width="23" height="29" viewBox="0 0 23 29" fill="none" xmlns="http://www.w3.org/2000/svg">
<path fill-rule="evenodd" clip-rule="evenodd" d="M9.73446 9.89493L9.73447 9.88963L5.79848 9.88957L9.57399 8.1237L9.57359 8.12224C9.64589 8.09865 9.72071 8.09025 9.79518 8.09744C9.805 8.09839 9.81482 8.09961 9.82462 8.1011L9.82477 8.10112C9.92702 8.11671 10.0253 8.16151 10.1126 8.23229L10.1126 8.2323C10.1998 8.30308 10.2738 8.39807 10.3293 8.5104L10.3293 8.51058C10.3848 8.62292 10.4202 8.74979 10.4331 8.88202L10.4331 8.88228C10.446 9.01457 10.4361 9.14892 10.404 9.27561L10.4039 9.27571C10.3718 9.40243 10.3183 9.51832 10.2474 9.615L10.2473 9.61509C10.1763 9.71172 10.0897 9.78674 9.99361 9.83472L9.99342 9.83481C9.98439 9.83932 9.97529 9.84358 9.96614 9.84759C9.89151 9.88026 9.81317 9.89625 9.73446 9.89493ZM2.78125 9.38662V11.6897L9.72016 11.6898C9.98369 11.6936 10.2458 11.6326 10.4924 11.5094L10.4926 11.5093C10.6804 11.4156 10.8561 11.2873 11.0145 11.1291C11.0989 11.0448 11.1784 10.9521 11.2522 10.8515L11.2523 10.8514C11.4647 10.562 11.6248 10.215 11.7211 9.83568L11.7211 9.83558C11.8173 9.45622 11.8471 9.05392 11.8086 8.65778L11.8085 8.65752C11.7699 8.26137 11.6638 7.88128 11.4978 7.54473L11.4978 7.54455C11.3318 7.20796 11.11 6.92334 10.8487 6.71129L10.8487 6.71128C10.7578 6.63759 10.663 6.5733 10.5651 6.51883C10.3812 6.41654 10.1863 6.34884 9.98644 6.31842L9.9863 6.3184C9.6885 6.27311 9.38676 6.31168 9.10172 6.4313L9.1015 6.43053L9.08017 6.44051L9.07765 6.44161L9.07736 6.44173L9.07739 6.44181L2.78125 9.38662ZM2.78125 17.0982V18.9473L11.9634 23.1756L11.9633 23.1759C12.2956 23.3475 12.6531 23.4222 13.0102 23.3944C13.1475 23.3838 13.2835 23.3581 13.4167 23.3179C13.6299 23.2536 13.8361 23.1521 14.0294 23.0155C14.3435 22.7937 14.6159 22.4849 14.8273 22.1112C15.0386 21.7375 15.1837 21.308 15.2522 20.8533C15.3206 20.3987 15.3108 19.93 15.2234 19.4809C15.136 19.0317 14.9731 18.613 14.7464 18.2547C14.6069 18.0341 14.4452 17.8397 14.2663 17.6764C14.1545 17.5743 14.036 17.4844 13.9118 17.4077C13.5894 17.2086 13.2371 17.1039 12.8799 17.101V17.0983L2.78125 17.0982ZM12.8704 18.8984L6.82456 18.8984L12.5046 21.514L12.5041 21.5159C12.6391 21.5804 12.7831 21.608 12.9269 21.5968C13.0799 21.5849 13.2289 21.5295 13.3634 21.4345C13.4979 21.3396 13.6145 21.2073 13.705 21.0473C13.7956 20.8873 13.8577 20.7033 13.887 20.5086C13.9163 20.3139 13.9121 20.1133 13.8747 19.9209C13.8372 19.7286 13.7675 19.5493 13.6704 19.3958C13.5733 19.2424 13.4513 19.1185 13.313 19.0332C13.175 18.9479 13.0241 18.903 12.8711 18.9018L12.8704 18.9018L12.8704 18.9015L12.8704 18.8984ZM16.0047 10.1233L16.0041 10.1238L15.3202 8.55644L15.3195 8.55463L15.3208 8.55364C15.6911 8.28315 16.1043 8.12616 16.5288 8.09475C16.5904 8.0902 16.6519 8.0883 16.7134 8.08904C17.0762 8.09342 17.4355 8.18968 17.7707 8.37324C18.1628 8.5879 18.5116 8.91622 18.7902 9.3329C19.0688 9.74958 19.2698 10.2435 19.3778 10.7766C19.4858 11.3098 19.4978 11.8679 19.4129 12.408C19.328 12.948 19.1485 13.4557 18.8883 13.8918C18.6657 14.2647 18.3892 14.5768 18.0747 14.8111C18.0214 14.8508 17.967 14.8883 17.9116 14.9235C17.5294 15.166 17.1093 15.2918 16.6836 15.291V15.2908H2.78125V13.4908H16.6855L16.6855 13.4888C16.8982 13.4892 17.1081 13.4264 17.299 13.3052C17.4899 13.184 17.6568 13.0077 17.7868 12.7899C17.9169 12.572 18.0065 12.3184 18.0489 12.0486C18.0913 11.7788 18.0853 11.5 18.0314 11.2337C17.9775 10.9674 17.877 10.7207 17.7379 10.5125C17.5987 10.3044 17.4244 10.1404 17.2286 10.0331C17.0328 9.92591 16.8205 9.87832 16.6082 9.89403C16.3962 9.90972 16.1897 9.98816 16.0047 10.1233Z" fill="#C1C1C1"/>
</svg>
