<svg width="22" height="22" viewBox="0 0 22 22" fill="none" xmlns="http://www.w3.org/2000/svg">
<path d="M10.3009 11.75C11.0524 11.75 11.6617 11.1344 11.6617 10.375C11.6617 9.61561 11.0524 9 10.3009 9C9.54928 9 8.94 9.61561 8.94 10.375C8.94 11.1344 9.54928 11.75 10.3009 11.75Z" stroke="#C1C1C1" stroke-width="2" stroke-miterlimit="10"/>
<path d="M13.6511 7.92669C12.0569 6.31588 4.98114 5 4.98114 5C4.98114 5 6.28313 12.1497 7.87771 13.7601C9.47262 15.3716 12.0572 15.3709 13.6515 13.7601C15.2457 12.1497 15.246 9.53784 13.6511 7.92669Z" stroke="#C1C1C1" stroke-width="2" stroke-miterlimit="10"/>
<path d="M10.9194 19C15.8388 19 19.8268 14.9706 19.8268 10C19.8268 5.02944 15.8388 1 10.9194 1C5.99999 1 2.01202 5.02944 2.01202 10C2.01202 14.9706 5.99999 19 10.9194 19Z" stroke="#C1C1C1" stroke-width="2" stroke-miterlimit="10"/>
</svg>
